<mxfile host="65bd71144e" scale="1" border="25">
    <diagram id="nmFAJHjWwtuaO4C3ST55" name="Page-1">
        <mxGraphModel dx="1252" dy="601" grid="1" gridSize="10" guides="1" tooltips="1" connect="1" arrows="1" fold="1" page="1" pageScale="1" pageWidth="1169" pageHeight="827" background="#FFFFFF" math="0" shadow="0">
            <root>
                <mxCell id="0"/>
                <mxCell id="1" parent="0"/>
                <mxCell id="13" style="edgeStyle=none;html=1;entryX=0;entryY=0.5;entryDx=0;entryDy=0;" edge="1" parent="1" source="Xfuig7rHMfGWmtFRZDQt-2" target="2">
                    <mxGeometry relative="1" as="geometry"/>
                </mxCell>
                <mxCell id="Xfuig7rHMfGWmtFRZDQt-2" value="&lt;font data-font-src=&quot;https://fonts.googleapis.com/css?family=Roboto+Mono&quot; style=&quot;font-size: 13px&quot;&gt;WB&lt;br&gt;Prep Fetch&lt;br style=&quot;font-size: 13px&quot;&gt;s0&lt;/font&gt;" style="ellipse;whiteSpace=wrap;html=1;fontFamily=Courier New;fontSize=13;" parent="1" vertex="1">
                    <mxGeometry x="110" y="60" width="94.07" height="80" as="geometry"/>
                </mxCell>
                <mxCell id="16" style="edgeStyle=none;html=1;" edge="1" parent="1" source="Xfuig7rHMfGWmtFRZDQt-21" target="6">
                    <mxGeometry relative="1" as="geometry"/>
                </mxCell>
                <mxCell id="Xfuig7rHMfGWmtFRZDQt-21" value="&lt;font data-font-src=&quot;https://fonts.googleapis.com/css?family=Roboto+Mono&quot; style=&quot;font-size: 13px&quot;&gt;Decode&lt;br style=&quot;font-size: 13px&quot;&gt;ALU&lt;br style=&quot;font-size: 13px&quot;&gt;MEM&lt;br style=&quot;font-size: 13px&quot;&gt;s7&lt;/font&gt;" style="ellipse;whiteSpace=wrap;html=1;fontFamily=Courier New;fontSize=13;" parent="1" vertex="1">
                    <mxGeometry x="480" y="60" width="100.64" height="80" as="geometry"/>
                </mxCell>
                <mxCell id="15" style="edgeStyle=none;html=1;entryX=0;entryY=0.5;entryDx=0;entryDy=0;" edge="1" parent="1" source="Xfuig7rHMfGWmtFRZDQt-30" target="Xfuig7rHMfGWmtFRZDQt-21">
                    <mxGeometry relative="1" as="geometry"/>
                </mxCell>
                <mxCell id="Xfuig7rHMfGWmtFRZDQt-30" value="Wait Ins Mem&lt;br style=&quot;font-size: 13px&quot;&gt;s2~s6" style="ellipse;whiteSpace=wrap;html=1;fontFamily=Courier New;fontSize=13;" parent="1" vertex="1">
                    <mxGeometry x="340" y="60" width="120.63" height="80" as="geometry"/>
                </mxCell>
                <mxCell id="18" style="edgeStyle=none;html=1;entryX=0;entryY=0.5;entryDx=0;entryDy=0;" edge="1" parent="1" source="Xfuig7rHMfGWmtFRZDQt-31" target="12">
                    <mxGeometry relative="1" as="geometry"/>
                </mxCell>
                <mxCell id="Xfuig7rHMfGWmtFRZDQt-31" value="Wait Data Mem&lt;br style=&quot;font-size: 13px&quot;&gt;s9~s14" style="ellipse;whiteSpace=wrap;html=1;fontFamily=Courier New;fontSize=13;" parent="1" vertex="1">
                    <mxGeometry x="730" y="60" width="114.07" height="80" as="geometry"/>
                </mxCell>
                <mxCell id="14" style="edgeStyle=none;html=1;entryX=0;entryY=0.5;entryDx=0;entryDy=0;" edge="1" parent="1" source="2" target="Xfuig7rHMfGWmtFRZDQt-30">
                    <mxGeometry relative="1" as="geometry"/>
                </mxCell>
                <mxCell id="2" value="&lt;font data-font-src=&quot;https://fonts.googleapis.com/css?family=Roboto+Mono&quot; style=&quot;font-size: 13px&quot;&gt;Query Ins&lt;br style=&quot;font-size: 13px&quot;&gt;s1&lt;/font&gt;" style="ellipse;whiteSpace=wrap;html=1;fontFamily=Courier New;fontSize=13;" parent="1" vertex="1">
                    <mxGeometry x="230" y="60" width="88.75" height="80" as="geometry"/>
                </mxCell>
                <mxCell id="17" style="edgeStyle=none;html=1;entryX=0;entryY=0.5;entryDx=0;entryDy=0;" edge="1" parent="1" source="6" target="Xfuig7rHMfGWmtFRZDQt-31">
                    <mxGeometry relative="1" as="geometry"/>
                </mxCell>
                <mxCell id="6" value="Query Data&lt;br&gt;s8" style="ellipse;whiteSpace=wrap;html=1;fontFamily=Courier New;fontSize=13;" parent="1" vertex="1">
                    <mxGeometry x="600" y="60" width="107.2" height="80" as="geometry"/>
                </mxCell>
                <mxCell id="12" value="Wait Data Mem&lt;br&gt;Calc PC&lt;br style=&quot;font-size: 13px&quot;&gt;s15" style="ellipse;whiteSpace=wrap;html=1;fontFamily=Courier New;fontSize=13;" vertex="1" parent="1">
                    <mxGeometry x="860" y="60" width="134.07" height="80" as="geometry"/>
                </mxCell>
                <mxCell id="20" value="" style="edgeStyle=elbowEdgeStyle;elbow=horizontal;endArrow=classic;html=1;exitX=0.5;exitY=1;exitDx=0;exitDy=0;entryX=0.5;entryY=1;entryDx=0;entryDy=0;" edge="1" parent="1" source="12" target="Xfuig7rHMfGWmtFRZDQt-2">
                    <mxGeometry width="50" height="50" relative="1" as="geometry">
                        <mxPoint x="650" y="240" as="sourcePoint"/>
                        <mxPoint x="700" y="190" as="targetPoint"/>
                        <Array as="points">
                            <mxPoint x="550" y="180"/>
                        </Array>
                    </mxGeometry>
                </mxCell>
            </root>
        </mxGraphModel>
    </diagram>
</mxfile>